<svg xmlns="http://www.w3.org/2000/svg" version="1.1" xmlns:xlink="http://www.w3.org/1999/xlink" xmlns:svgjs="http://svgjs.dev/svgjs" width="100%" height="100%" viewBox="0 0 1000 600"><rect width="1000" height="600" x="0" y="0" fill="transparent"/><g><circle r="166.66666666666666" cx="339.0446268717448" cy="361.26681524167464" fill="transparent" transform="matrix(0.7251508370393451,0,0,0.7251508370393451,0,38.02707009487975)"/><path d="M289.3294851942562 436.26677813905127L289.3294851942562 436.26677813905127Q284.008049188404 436.26677813905127 280.5249274391189 433.2674232993891Q277.0418056898339 430.23581733241883 275.1712403059585 425.81741289119606L275.1712403059585 425.81741289119606Q272.84915913976846 419.78645208456356 272.84915913976846 411.433410111741L272.84915913976846 411.433410111741Q272.84915913976846 403.75764181239055 274.49396663248643 395.75936223995814Q276.1065229978962 387.7288315402175 278.20284627292887 381.9236286247424L278.20284627292887 381.9236286247424Q283.5242822787811 366.1528273710349 292.8126069435413 350.5755328811766Q302.10093160830155 335.03048951862655 313.1308171477043 321.227007030719Q324.16070268710706 307.39127341550324 334.1585521526476 296.94190816764797L334.1585521526476 296.94190816764797Q318.3554997716319 297.87719085958565 304.10050150140967 299.97351413461837Q289.81325210387917 302.06983740965103 281.91172591337136 304.61767646699843L281.91172591337136 304.61767646699843Q274.01019972286355 306.9397576331885 269.0112749900932 309.93911247285064Q264.0446013846312 312.97071843982104 264.0446013846312 316.22808229794873L264.0446013846312 316.22808229794873Q264.0446013846312 320.3884777207059 273.78444183170615 324.8068821619286L273.78444183170615 324.8068821619286Q274.2359576140209 325.032640053086 274.2359576140209 325.7421648538663L274.2359576140209 325.7421648538663Q274.2359576140209 327.83848812889903 272.1718854662964 327.3547212192761L272.1718854662964 327.3547212192761Q265.65715775004094 324.5811242707713 262.52879840114605 321.227007030719Q259.4004390522511 317.8406386633585 259.4004390522511 314.3575169140734L259.4004390522511 314.3575169140734Q259.4004390522511 310.19712149131624 263.9155968753984 306.2302328324082Q268.43075469854574 302.2955953008084 276.8160477986765 299.747756243461L276.8160477986765 299.747756243461Q280.7506853302763 298.58671566036594 289.91000548580377 297.29667056803817Q299.1015767686394 296.00662547571034 311.74401867345193 294.8455848926153Q324.4187117055726 293.6845443095203 338.0931896842474 293.0072706360482L338.0931896842474 293.0072706360482Q339.73799717696534 291.3624631433302 341.12479565121777 289.97566466907784Q342.51159412547014 288.5888661948254 343.8983925997225 287.42782561173044L343.8983925997225 287.42782561173044Q345.0594331828176 286.26678502863535 346.4784827843782 286.26678502863535L346.4784827843782 286.26678502863535Q349.2520797328829 286.26678502863535 349.2520797328829 289.2983909956057L349.2520797328829 289.2983909956057Q349.2520797328829 290.68518946985813 347.86528125863055 292.52350372642525L347.86528125863055 292.52350372642525Q352.28368569985327 292.2977458352679 356.44408112261044 292.2977458352679Q360.6367276726759 292.2977458352679 364.79712309543305 292.2977458352679L364.79712309543305 292.2977458352679Q378.27809431025867 292.2977458352679 389.7594956319761 293.23302852720553Q401.2731480810018 294.1683112191432 408.9166652530441 296.3613878761005Q416.59243355239454 298.58671566036594 417.9792320266469 302.5213531919658L417.9792320266469 302.5213531919658Q418.68875682742726 303.90815166621815 418.68875682742726 305.7787170500935L418.68875682742726 305.7787170500935Q418.68875682742726 309.7133545816933 415.88290875161425 314.2607635321488Q413.10931180310945 318.77592135529613 409.400432162667 322.71055888689597L409.400432162667 322.71055888689597Q408.239391579572 323.871599469991 407.07835099647696 323.871599469991L407.07835099647696 323.871599469991Q405.6915525222246 323.871599469991 405.6915525222246 322.4848009957386L405.6915525222246 322.4848009957386Q405.6915525222246 321.54951830380094 406.594584086854 320.64648673917145L406.594584086854 320.64648673917145Q412.8835539119521 314.13175902291607 411.7225133288571 308.1007982162835L411.7225133288571 308.1007982162835Q411.01298852807673 304.3919185758411 405.7883059041492 302.06983740965103Q400.5636232802215 299.747756243461 392.6620970897137 298.45771115113314Q384.79282202651405 297.16766605880537 375.9560131440686 296.7161502764906Q367.1192042616231 296.2646344941759 358.9919201799579 296.2646344941759L358.9919201799579 296.2646344941759Q354.6057668660433 296.2646344941759 350.76788271636815 296.2646344941759Q346.92999856669286 296.2646344941759 343.8983925997225 296.4903923853333L343.8983925997225 296.4903923853333Q334.38431004380493 305.7787170500935 322.99966210401203 319.13068375568633Q311.64726529152733 332.4826504612791 301.87517371714415 348.0276938238292L301.87517371714415 348.0276938238292Q312.0987810738421 346.8666532407342 322.19338392130715 346.0603750580293Q332.28798676877227 345.2540968753244 343.2211189262504 345.2540968753244L343.2211189262504 345.2540968753244Q349.0263218417256 345.2540968753244 355.05728264835807 345.47985476648176Q361.08824345499056 345.70561265763916 367.602971171246 346.41513745841945L367.602971171246 346.41513745841945Q371.3118508116885 346.6408953495768 371.3118508116885 348.0276938238292L371.3118508116885 348.0276938238292Q371.3118508116885 348.96297651576685 369.6992944462787 349.6725013165472Q368.05448695356074 350.3497749900193 366.8934463704657 350.3497749900193L366.8934463704657 350.3497749900193Q363.89409153080356 350.3497749900193 360.6367276726759 350.2530216080947Q357.3793638145481 350.1240170988619 353.89624206526304 350.1240170988619L353.89624206526304 350.1240170988619Q344.38215950934546 350.1240170988619 334.1585521526476 350.5755328811766Q323.9349447959497 351.05929979079957 314.6466201311895 351.86557797350446Q305.35829546642924 352.67185615620934 298.3920519678591 353.8328967393043L298.3920519678591 353.8328967393043Q288.1684446111612 370.5712318122577 282.847008605309 387.7288315402175L282.847008605309 387.7288315402175Q281.20220111259107 393.5340344556926 280.1701650387288 399.5972463896333Q279.13812896486655 405.62820719626586 279.13812896486655 411.433410111741L279.13812896486655 411.433410111741Q279.13812896486655 418.1738957191538 280.5249274391189 424.4306144169437L280.5249274391189 424.4306144169437Q281.68596802221396 428.8490188581664 285.26584315342365 431.5258624247466Q288.8779694119415 434.1704548640186 292.1353332700692 433.2674232993891L292.1353332700692 433.2674232993891L293.0706159620069 433.0094142809236Q294.908930218574 433.0094142809236 294.908930218574 434.4284638824842L294.908930218574 434.4284638824842Q294.908930218574 435.8152623567366 292.36109116122657 436.0410202478939L292.36109116122657 436.0410202478939Q291.42580846928894 436.26677813905127 290.74853479581685 436.26677813905127Q290.03900999503657 436.26677813905127 289.3294851942562 436.26677813905127Z " fill="transparent" transform="matrix(0.7251508370393451,0,0,0.7251508370393451,0,38.02707009487975)"/><path d="M611.1947735031305 436.26678940057224L611.1947735031305 436.26678940057224Q607.367122494063 436.26678940057224 603.5080972963964 435.5765572513961L603.5080972963964 435.5765572513961Q592.6840022297708 433.78822850125795 589.9544478216652 426.32117161471626L589.9544478216652 426.32117161471626Q589.0445963522967 423.84261071540203 589.0445963522967 420.6738176669116L589.0445963522967 420.6738176669116Q589.0445963522967 412.1086641794079 596.1665371642504 402.03754963915634Q603.288477976204 391.9978092875036 616.9676242053307 383.3071590456043Q630.6153962458587 374.585134615106 649.8163996683944 370.31824496565366L649.8163996683944 370.31824496565366Q660.8914882438113 367.80830987774044 672.5313122140086 366.67883908817953Q684.1711361842059 365.5493682986186 695.4658440798153 365.5493682986186L695.4658440798153 365.5493682986186Q704.9408490366875 365.5493682986186 713.7569960329824 366.2396004477947L713.7569960329824 366.2396004477947Q728.6597356174668 351.11724154311787 742.5585011667861 335.0536569804736Q756.4572667161053 319.0214466064282 767.2813617827308 305.0285584913123L767.2813617827308 305.0285584913123Q767.2813617827308 304.80893917111985 767.1872392169341 304.4638230965318Q767.0617424625384 304.11870702194375 767.0617424625384 303.89908770175134L767.0617424625384 303.89908770175134Q766.6225038221537 300.04006250408486 761.6340078349263 298.12623699955105Q756.6768860362977 296.21241149501725 750.3392999393168 295.6476761002368Q744.033088030935 295.08294070545634 738.8249727235152 295.08294070545634Q733.6168574160954 295.08294070545634 732.9579994555181 295.08294070545634L732.9579994555181 295.08294070545634Q721.1926787309253 295.99279217482484 710.0234675897116 297.90661767935865Q698.8542564484981 299.82044318389245 692.9559089919021 302.2990040832067L692.9559089919021 302.2990040832067Q687.3085550440974 304.55794566232856 683.9201426754146 307.16200331603847Q680.5317303067319 309.76606096974837 680.5317303067319 312.71523469804634L680.5317303067319 312.71523469804634Q680.5317303067319 316.54288570711395 687.088935723905 320.37053671618156L687.088935723905 320.37053671618156Q687.5595485528886 320.62153022497284 687.5595485528886 321.28038818555007L687.5595485528886 321.28038818555007Q687.5595485528886 321.97062033472616 687.088935723905 322.409858975111Q686.6496970835201 322.8804718040947 686.1790842545365 322.6294782953034L686.1790842545365 322.6294782953034Q677.3943114468403 317.67235649667487 677.3943114468403 311.11515107950174L677.3943114468403 311.11515107950174Q677.3943114468403 302.549997591998 689.3478773030267 298.0321144337543L689.3478773030267 298.0321144337543Q692.7362896717095 296.65165013540206 700.8622045188285 295.208437459852Q709.0194935545462 293.733850595703 719.2788532263914 292.82399912633446Q729.5695870868353 291.91414765696595 739.5152048726914 291.91414765696595L739.5152048726914 291.91414765696595Q751.2491514086855 291.91414765696595 760.0652984049805 293.60835384130735Q768.8814454012754 295.30256002564875 770.0109161908365 299.82044318389245L770.0109161908365 299.82044318389245Q770.2305355110288 300.51067533306855 770.0109161908365 301.4205268024371L770.0109161908365 301.4205268024371Q771.7992449409744 299.1615852233152 773.3993285595191 296.99676620999014Q774.9680379894648 294.86332138526393 776.5367474194106 292.6043798061421L776.5367474194106 292.6043798061421Q776.7877409282019 292.13376697715836 777.6662182089715 292.13376697715836L777.6662182089715 292.13376697715836Q778.3564503581476 292.13376697715836 778.7956889985326 292.82399912633446Q779.2663018275161 293.5142312755106 778.57606967834 294.1730892360878L778.57606967834 294.1730892360878Q772.018864261167 303.20885555257524 762.3242399841024 315.75853099214106Q752.5982415184387 328.276832243108 741.5231529430218 341.51673983185Q730.4794385562038 354.72527323199307 719.4043499807872 366.67883908817953L719.4043499807872 366.67883908817953Q739.5152048726914 368.718161347109 751.4687707288779 372.3261930359842L751.4687707288779 372.3261930359842Q752.159002878054 369.8476321366699 752.8178608386311 367.5886905575481Q753.5080929878072 365.3297489784262 754.4179444571757 363.07080739930433L754.4179444571757 363.07080739930433Q758.716208295227 351.11724154311787 763.892949414048 339.25779825272815Q769.1010647214678 327.39835496233843 774.1836832744921 316.98212434749877Q779.2663018275161 306.597267921258 783.2194495909794 299.25570778911197Q787.1725973544426 291.91414765696595 788.9609261045807 289.4355867576517L788.9609261045807 289.4355867576517Q790.0903968941418 287.866877327706 792.4748352276592 287.0511484241342Q794.8592735611767 286.26679370916133 796.6476023113148 286.26679370916133L796.6476023113148 286.26679370916133Q800.25563400019 286.26679370916133 799.1261632106291 288.08649664789834L799.1261632106291 288.08649664789834Q796.2083636709301 292.13376697715836 790.9061257977135 301.29503004804144Q785.5725137358982 310.45629311892446 779.360424393313 322.75497504969906Q773.1483350507278 335.0536569804736 767.5009811029231 348.6073064552047Q761.8536271551186 362.1609559299358 758.4652147864358 375.0557474440897L758.4652147864358 375.0557474440897Q761.1947691945413 376.40483755384304 761.8536271551186 377.7539276635964L761.8536271551186 377.7539276635964Q762.1046206639098 377.9735469837888 762.1046206639098 378.6637791329649L762.1046206639098 378.6637791329649Q762.1046206639098 379.5736306023335 761.1947691945413 380.23248856291065Q760.2849177251728 380.9227207120868 759.8456790847881 380.01286924271824L759.8456790847881 380.01286924271824Q759.5946855759967 379.5736306023335 759.0299501812162 379.2285145277454Q758.4652147864358 378.8833984531573 757.8063568258585 378.4441598127725L757.8063568258585 378.4441598127725Q756.6768860362977 383.40128161140103 755.8925313213249 388.2642808442328Q755.076802417753 393.12728007706454 755.076802417753 397.6451632353083L755.076802417753 397.6451632353083Q755.076802417753 406.6809295517957 758.5907115408315 412.89301889438076Q762.1046206639098 419.1051082369659 770.2305355110288 420.89343698710405L770.2305355110288 420.89343698710405Q771.3600063005897 421.14443049589534 772.3639803357551 421.2385530616921Q773.3993285595191 421.36404981608774 774.5287993490801 421.36404981608774L774.5287993490801 421.36404981608774Q777.9172117177629 421.36404981608774 781.5252434066381 419.88946295193875Q785.1332750955132 418.41487608778976 788.3020681440037 414.8068443989146L788.3020681440037 414.8068443989146Q788.7413067843884 414.3676057585298 789.6511582537569 414.3676057585298L789.6511582537569 414.3676057585298Q790.780629043318 414.3676057585298 791.4708611924939 415.02646371910697Q792.1297191530712 415.7166958682831 791.4708611924939 416.3755538288603L791.4708611924939 416.3755538288603Q787.8314553150199 420.45419834671924 783.5645656655674 422.27390128545625Q779.2663018275161 424.0622300355944 774.7484186692725 424.0622300355944L774.7484186692725 424.0622300355944Q772.018864261167 424.0622300355944 769.3206840416603 423.4033720750172L769.3206840416603 423.4033720750172Q757.8063568258585 420.89343698710405 753.0688543474225 412.54790281979274Q748.2999776803874 404.2023686524814 748.2999776803874 393.12728007706454L748.2999776803874 393.12728007706454Q748.2999776803874 389.04863555920565 748.9902098295636 384.6562491553576Q749.6804419787397 380.23248856291065 750.5589192595094 375.71460540466694L750.5589192595094 375.71460540466694Q744.6919459915123 373.9262766545288 735.7816764294205 372.4516897903798Q726.8400326787298 370.9771029262308 716.2355569322967 370.0672514568623L716.2355569322967 370.0672514568623L711.7176737740531 374.83612812389737Q703.1211460979503 383.8718944403848 691.512696316352 394.4763701868179Q679.8728723461546 405.08084593325106 666.5388421916159 414.58722507872216Q653.2048120370772 424.0622300355944 639.0864271675656 430.18019681238275Q624.968042298054 436.26678940057224 611.1947735031305 436.26678940057224ZM616.4028888105503 430.39981613257515L616.4028888105503 430.39981613257515Q628.8270674957206 430.39981613257515 641.5649880668799 424.53284286457813Q654.3342828266381 418.6344954079822 666.6643389460115 409.50460652569797Q678.9630208767861 400.34334345481494 690.1322320179997 389.7388677083818Q701.3328173478121 379.10301777334973 710.588202984492 369.6280128164775L710.588202984492 369.6280128164775Q701.5524366680047 368.9377806673014 692.2970510313248 368.9377806673014L692.2970510313248 368.9377806673014Q682.5710525656613 368.9377806673014 673.1901701745859 369.8476321366699Q663.8406619721092 370.7574836060384 654.5539021468305 372.7968058649679L654.5539021468305 372.7968058649679Q641.0002526720995 375.9655989134583 630.7408930002542 381.4874561068672Q620.4501591398104 387.00931330027623 613.6733344024448 393.56651871744936L613.6733344024448 393.56651871744936Q608.02598045464 398.9942533450616 604.0728326911768 405.8965748368228Q600.1196849277136 412.76752213998515 600.1196849277136 418.6344954079822L600.1196849277136 418.6344954079822Q600.1196849277136 423.62299139520957 603.8532133709845 427.01140376389236Q607.5867418142553 430.39981613257515 616.4028888105503 430.39981613257515ZM809.5423938254687 420.0149597063344L809.5423938254687 420.0149597063344Q800.25563400019 420.0149597063344 795.9887443507378 415.81081843407986Q791.6904805126865 411.6380513504242 791.6904805126865 404.64160729286624L791.6904805126865 404.64160729286624Q791.6904805126865 402.8219043541292 792.0355965872745 400.90807884959537Q792.3493384732635 398.9942533450616 792.8199513022473 396.95493108613215L792.8199513022473 396.95493108613215Q793.9494220918082 392.9076607568722 796.5534797455182 387.4799261292599Q799.1261632106291 382.0521915016477 802.9851884082957 376.84407619422785Q806.8128394173632 371.667335075407 811.3307225756068 368.2789227067242Q815.8486057338507 364.8905103380414 820.8371017210782 364.8905103380414L820.8371017210782 364.8905103380414Q824.884372050338 364.8905103380414 827.0491910636631 367.80830987774044Q829.1826358883893 370.7574836060384 829.1826358883893 374.83612812389737L829.1826358883893 374.83612812389737Q829.1826358883893 379.10301777334973 826.5785782346795 383.5267783657967Q823.9745205809695 387.91916476964474 819.7076309315171 390.6487191777503L819.7076309315171 390.6487191777503Q814.7191349442896 394.0371315464331 808.4129230359079 394.0371315464331L808.4129230359079 394.0371315464331Q804.3342785180491 394.0371315464331 800.9458661493663 392.43704792788844L800.9458661493663 392.43704792788844Q797.5574537806833 399.21387266525403 797.5574537806833 405.77107808242715L797.5574537806833 405.77107808242715Q797.5574537806833 410.50858056086327 800.25563400019 413.89699292954606Q802.9851884082957 417.28540529822885 809.2914003166775 417.28540529822885L809.2914003166775 417.28540529822885Q816.9780765234116 417.28540529822885 822.8450497914087 413.55187685495804Q828.7433972480046 409.8497226002861 833.8260158010287 403.73175582349774Q838.908634354053 397.6451632353083 843.646136832489 390.6487191777503L843.646136832489 390.6487191777503Q844.3049947930663 389.9584870285742 844.5559883018575 389.9584870285742L844.5559883018575 389.9584870285742Q845.2148462624348 389.9584870285742 845.2148462624348 391.0879578181351L845.2148462624348 391.0879578181351Q845.2148462624348 392.21742860769604 844.5559883018575 393.346899397257L844.5559883018575 393.346899397257Q840.4773437839985 399.6844854942377 835.3947252309745 405.77107808242715Q830.3121066779504 411.8576706706166 823.9745205809695 415.9363151884755Q817.6683086725877 420.0149597063344 809.5423938254687 420.0149597063344ZM806.1539814567861 390.8683384979427L806.1539814567861 390.8683384979427Q812.020954724783 390.8683384979427 817.1976958436039 386.7896939800838L817.1976958436039 386.7896939800838Q819.7076309315171 385.0013652299457 821.4959596816552 382.4914301420325Q823.3156626203922 380.01286924271824 823.9745205809695 377.534308343404L823.9745205809695 377.534308343404Q824.6647527301457 375.0557474440897 824.6647527301457 373.2360445053527L824.6647527301457 373.2360445053527Q824.6647527301457 368.0593033865318 820.8371017210782 368.0593033865318L820.8371017210782 368.0593033865318Q818.3271666331648 368.0593033865318 815.1897477732734 370.9771029262308L815.1897477732734 370.9771029262308Q812.4601933651679 373.4556638255451 809.6365163912656 377.3146890232116Q806.8128394173632 381.14234003227915 804.7735171584338 384.6562491553576Q802.7655690881033 388.13878408983715 802.0753369389272 389.7388677083818L802.0753369389272 389.7388677083818Q803.644046368873 390.8683384979427 806.1539814567861 390.8683384979427ZM858.329257096781 421.80328845647256L858.329257096781 421.80328845647256Q853.591754618345 421.80328845647256 849.8582261750742 421.14443049589534Q846.1246977318033 420.45419834671924 844.3049947930663 419.7639661975431L844.3049947930663 419.7639661975431Q841.826433893752 418.88548891677345 840.6028405383943 417.4109020526245Q839.3478729944377 415.9363151884755 839.3478729944377 414.8068443989146L839.3478729944377 414.8068443989146Q839.3478729944377 413.23813496896884 840.9165824243835 413.23813496896884L840.9165824243835 413.23813496896884Q842.0460532139443 413.23813496896884 843.646136832489 414.58722507872216L843.646136832489 414.58722507872216Q846.8149298809794 417.28540529822885 849.7327294206784 417.7560181272126L849.7327294206784 417.7560181272126Q852.2112903199927 417.7560181272126 856.2899348378517 416.9402892236408Q860.3685793557106 416.15593450866794 861.9372887856564 414.58722507872216L861.9372887856564 414.58722507872216Q864.635469005163 411.8576706706166 864.635469005163 409.15949045110995L864.635469005163 409.15949045110995Q864.635469005163 407.3397875123729 863.6314949699977 405.6455813280315Q862.6275209348323 403.9513751436901 860.8078179960953 402.3826657137444L860.8078179960953 402.3826657137444Q857.8586442677972 399.9041048144301 854.9408447280982 397.3000471607202Q851.9916709998004 394.6959895070103 849.9523487408708 391.52719645851994L849.9523487408708 391.52719645851994Q846.8149298809794 386.5700746598914 846.8149298809794 381.8325721814553L846.8149298809794 381.8325721814553Q846.8149298809794 374.585134615106 851.6465549252123 368.2789227067242Q856.509554158044 361.9413366097434 862.1569081058487 357.89406628048346L862.1569081058487 357.89406628048346Q868.274874882637 353.5958024424321 874.5810867910188 353.5958024424321L874.5810867910188 353.5958024424321Q877.9694991597016 353.5958024424321 880.9186728879997 355.07038930658115Q883.8364724276987 356.5136019821312 885.4365560462434 359.6823950306216L885.4365560462434 359.6823950306216Q885.6561753664357 360.1530078596053 885.6561753664357 360.8118658201825L885.6561753664357 360.8118658201825Q885.6561753664357 362.1609559299358 884.7463238970672 362.6315687589195Q883.8364724276987 363.07080739930433 883.3972337873138 361.721717289551L883.3972337873138 361.721717289551Q882.0481436775606 358.11368560067586 875.9301769007723 358.11368560067586L875.9301769007723 358.11368560067586Q872.3221452118971 358.11368560067586 868.1493781282413 359.4627757104292Q863.9766110445858 360.8118658201825 861.4980501452715 362.6315687589195L861.4980501452715 362.6315687589195Q853.8113739385374 368.4985420269166 853.8113739385374 377.7539276635964L853.8113739385374 377.7539276635964Q853.8113739385374 384.3111330807696 858.1096377765887 389.5192483881894L858.1096377765887 389.5192483881894Q861.0274373162877 393.12728007706454 864.3217271191738 396.1705763711593Q867.5846427334609 399.21387266525403 869.8435843125828 402.03754963915634Q872.1025258917045 404.86122661305865 871.4122937425284 407.5907810211642L871.4122937425284 407.5907810211642Q870.2828229529675 412.54790281979274 864.9805850797511 415.59119911388746Q859.6783472065345 418.6344954079822 855.1604640482906 419.1051082369659L855.1604640482906 419.1051082369659Q856.509554158044 419.32472755715827 860.1175858469192 419.32472755715827L860.1175858469192 419.32472755715827Q873.0123773610733 419.32472755715827 882.1422662433572 410.7281998810557Q891.3035293142404 402.163046393552 898.9902055209745 390.397725668959L898.9902055209745 390.397725668959Q899.4294441613592 389.7388677083818 899.900056990343 389.7388677083818L899.900056990343 389.7388677083818Q900.3392956307277 389.7388677083818 900.3392956307277 390.8683384979427L900.3392956307277 390.8683384979427Q900.3392956307277 392.21742860769604 899.2098248411669 394.0371315464331L899.2098248411669 394.0371315464331Q890.6132971650643 407.12016819218053 881.4834082827801 414.46172832432654Q872.3221452118971 421.80328845647256 858.329257096781 421.80328845647256ZM899.900056990343 419.7639661975431L899.900056990343 419.7639661975431Q895.8214124724841 419.7639661975431 894.0017095337471 417.06578597803644Q892.213380783609 414.3676057585298 892.213380783609 410.28896124067086L892.213380783609 410.28896124067086Q892.213380783609 407.12016819218053 892.872238744186 404.2023686524814L892.872238744186 404.2023686524814Q893.5624708933622 401.03357560399104 897.1705025822373 393.692015471845Q900.7785342711127 386.350455339699 905.076798109164 378.2245404925801L905.076798109164 378.2245404925801Q902.817856530042 379.10301777334973 900.213798876332 380.1383659971139Q897.6411154112211 381.14234003227915 896.5116446216603 382.2718108218401L896.5116446216603 382.2718108218401Q895.6017931522917 382.7424236508238 895.3821738320992 382.7424236508238L895.3821738320992 382.7424236508238Q894.6919416829232 382.7424236508238 894.6919416829232 381.8325721814553L894.6919416829232 381.8325721814553Q894.6919416829232 379.79324992252583 897.1705025822373 377.9735469837888L897.1705025822373 377.9735469837888Q899.6490634815516 376.1852182336507 902.0335018150693 375.49498608447453Q904.4179401485867 374.83612812389737 907.5553590084783 373.9262766545288L907.5553590084783 373.9262766545288Q910.0652940963912 369.4083934962851 912.8889710702936 364.5453942634534Q915.7126480441959 359.6823950306216 917.9715896233179 356.0743633417464L917.9715896233179 356.0743633417464Q919.5402990532637 353.81542176262457 922.4894727815615 350.3015126395461Q925.4072723212605 346.8189777050666 929.0153040101357 344.5600361259447L929.0153040101357 344.5600361259447Q931.0546262690652 343.2109460161914 934.443038637748 343.2109460161914L934.443038637748 343.2109460161914Q936.9215995370623 343.2109460161914 937.1725930458535 344.089423296961L937.1725930458535 344.089423296961Q933.7841806771708 344.9992747663295 930.2702715540925 348.6073064552047Q926.7563624310139 352.2467123326788 923.6189435711224 356.9842148111149Q920.4501505226319 361.721717289551 918.1912089435102 365.8944843732067Q915.9322673643883 370.0672514568623 914.8027965748274 372.3261930359842L914.8027965748274 372.3261930359842Q919.5402990532637 371.667335075407 922.7090921017539 371.667335075407L922.7090921017539 371.667335075407Q924.497420851892 371.667335075407 925.8778851502443 371.7614576412037Q927.2269752599975 371.8869543955994 928.1368267293662 372.10657371579174L928.1368267293662 372.10657371579174Q929.9251554795044 372.3261930359842 929.9251554795044 373.2360445053527L929.9251554795044 373.2360445053527Q929.9251554795044 374.1458959747212 927.6662139003824 374.1458959747212L927.6662139003824 374.1458959747212Q925.8778851502443 374.1458959747212 923.4934468167266 374.1458959747212Q921.1090084832092 374.1458959747212 918.4108282637026 374.585134615106L918.4108282637026 374.585134615106Q916.3715060047732 374.83612812389737 914.238061180047 375.9655989134583Q912.0732421667219 377.0950697030192 911.4143842061446 378.4441598127725L911.4143842061446 378.4441598127725Q906.4258882189172 387.4799261292599 902.5982372098497 395.82546029657124Q898.770586200782 404.2023686524814 898.2999733717984 408.46925830193385L898.2999733717984 408.46925830193385Q897.6411154112211 415.7166958682831 902.5982372098497 415.7166958682831L902.5982372098497 415.7166958682831Q907.5553590084783 415.7166958682831 912.6379775615023 411.29293527583616Q917.7205961145264 406.90054887198806 922.2384792727703 401.03357560399104Q926.7563624310139 395.166602335994 929.4859168391195 391.0879578181351L929.4859168391195 391.0879578181351Q930.395768308488 390.17810634876656 930.6153876286803 390.17810634876656L930.6153876286803 390.17810634876656Q931.2742455892576 390.17810634876656 931.2742455892576 391.30757713832753L931.2742455892576 391.30757713832753Q931.2742455892576 392.21742860769604 930.6153876286803 393.346899397257L930.6153876286803 393.346899397257Q926.7563624310139 399.21387266525403 921.7992406323854 405.3318394420424Q916.8421188337568 411.4184320302318 911.2888874517489 415.59119911388746Q905.7670302583399 419.7639661975431 899.900056990343 419.7639661975431ZM927.6662139003824 419.32472755715827L927.6662139003824 419.32472755715827Q926.0975044704367 419.32472755715827 925.1876530010682 417.50502461842126Q924.2778015316997 415.7166958682831 924.2778015316997 413.23813496896884L924.2778015316997 413.23813496896884Q924.2778015316997 409.59872909149476 925.3131497554639 405.2063426876467Q926.317123790629 400.81395628379863 927.4465945801901 397.0804278405278Q928.576065369751 393.346899397257 929.0153040101357 391.9978092875036L929.0153040101357 391.9978092875036Q932.1840970586261 383.62090093159344 937.1725930458535 372.89092843076463Q942.1297148444821 362.1609559299358 949.0320363362432 351.90159625809076Q955.9029836394056 341.6108623976467 964.2798919953159 334.0496829453083Q972.625426162627 326.48850349296987 982.3514246282907 324.22956191384804L982.3514246282907 324.22956191384804Q983.4808954178516 324.00994259365564 984.4848694530169 323.88444583925997Q985.488843488182 323.7589490848643 986.3986949575506 323.7589490848643L986.3986949575506 323.7589490848643Q990.0067266464257 323.7589490848643 992.2656682255476 325.2335359490133Q994.5246098046696 326.7081228131623 995.2148419538455 328.96706439228416L995.2148419538455 328.96706439228416Q995.2148419538455 329.18668371247657 995.3403387082412 329.406303032669Q995.4344612740381 329.65729654146025 995.4344612740381 330.09653518184507L995.4344612740381 330.09653518184507Q995.4344612740381 331.226005971406 994.7756033134608 331.226005971406L994.7756033134608 331.226005971406Q993.6461325239 331.226005971406 993.3951390151085 329.65729654146025L993.3951390151085 329.65729654146025Q993.1755196949161 328.52782575189934 991.387190944778 327.96309035711886Q989.567488006041 327.39835496233843 987.3085464269191 327.39835496233843L987.3085464269191 327.39835496233843Q979.8414895403776 327.39835496233843 972.280310088039 333.8300636251159Q964.7191306357006 340.2617722878934 957.5971898237469 350.0818933193537Q950.4752490117933 359.902014350814 944.7337724981919 370.31824496565366Q938.9609217959917 380.7031013918944 935.3528901071165 388.82901623901324L935.3528901071165 388.82901623901324Q935.1332707869242 389.26825487939806 934.09792256316 392.21742860769604Q933.0939485279946 395.166602335994 931.9644777384337 399.21387266525403Q930.8350069488729 403.2925171831129 930.1447747996967 407.12016819218053L930.1447747996967 407.12016819218053L936.262741576485 398.0844018756931Q941.439482695306 390.397725668959 948.9065395818477 382.6169268964282Q956.3735964683895 374.83612812389737 965.1583692760855 369.8476321366699L965.1583692760855 369.8476321366699Q966.068220745454 369.4083934962851 967.103568969218 369.18877417609275Q968.1075430043834 368.9377806673014 969.0173944737519 368.9377806673014L969.0173944737519 368.9377806673014Q971.0567167326815 368.9377806673014 971.0567167326815 370.31824496565366L971.0567167326815 370.31824496565366Q971.0567167326815 370.7574836060384 969.9272459431204 372.5771865447755L969.9272459431204 372.5771865447755Q965.1583692760855 378.8833984531573 962.4601890565787 385.7857199449185Q959.762008837072 392.65666724808085 959.0717766878961 400.81395628379863L959.0717766878961 400.81395628379863Q958.8521573677035 405.77107808242715 960.0757507230612 410.06934192047845Q961.3307182670178 414.3676057585298 965.6289821050691 414.3676057585298L965.6289821050691 414.3676057585298Q970.3664845835053 414.3676057585298 975.0098644961447 410.16346448627525Q979.621870220185 405.99069740261956 983.5750179836482 400.4688402092106Q987.5281657471116 394.9156088272027 990.4773394754095 390.6487191777503L990.4773394754095 390.6487191777503Q990.9165781157942 389.9584870285742 991.1361974359868 389.9584870285742L991.1361974359868 389.9584870285742Q991.8264295851629 389.9584870285742 991.8264295851629 391.30757713832753L991.8264295851629 391.30757713832753Q991.8264295851629 392.65666724808085 990.6969587956019 394.4763701868179L990.6969587956019 394.4763701868179Q987.0889271067267 399.9041048144301 982.9161600230711 405.3318394420424Q978.7120187508165 410.7281998810557 973.9745162723805 414.3676057585298Q969.2370137939442 417.97563744740495 963.5896598461397 417.97563744740495L963.5896598461397 417.97563744740495Q957.942305898335 417.97563744740495 955.4637449990207 413.67737360935365Q952.9851840997067 409.37910977130235 952.9851840997067 403.2925171831129L952.9851840997067 403.2925171831129Q952.9851840997067 396.73531176593974 955.1186289244326 389.26825487939806Q957.2520737491589 381.8325721814553 960.201247477457 376.84407619422785L960.201247477457 376.84407619422785Q954.3342742094599 381.14234003227915 947.9966881124792 387.57404869505666Q941.6904762040972 394.0371315464331 937.1725930458535 401.25319492418345L937.1725930458535 401.25319492418345Q935.5725094273089 404.2023686524814 932.6547098876099 408.59475505632946Q929.7055361593118 412.98714146017755 929.2662975189271 415.9363151884755L929.2662975189271 415.9363151884755Q928.576065369751 419.32472755715827 927.6662139003824 419.32472755715827ZM1004.9408404195092 420.0149597063344L1004.9408404195092 420.0149597063344Q995.6540805942304 420.0149597063344 991.387190944778 415.81081843407986Q987.0889271067267 411.6380513504242 987.0889271067267 404.64160729286624L987.0889271067267 404.64160729286624Q987.0889271067267 402.8219043541292 987.4340431813148 400.90807884959537Q987.747785067304 398.9942533450616 988.2183978962878 396.95493108613215L988.2183978962878 396.95493108613215Q989.3478686858487 392.9076607568722 991.9519263395584 387.4799261292599Q994.5246098046696 382.0521915016477 998.383635002336 376.84407619422785Q1002.2112860114037 371.667335075407 1006.7291691696473 368.2789227067242Q1011.247052327891 364.8905103380414 1016.2355483151184 364.8905103380414L1016.2355483151184 364.8905103380414Q1020.2828186443785 364.8905103380414 1022.4476376577036 367.80830987774044Q1024.5810824824298 370.7574836060384 1024.5810824824298 374.83612812389737L1024.5810824824298 374.83612812389737Q1024.5810824824298 379.10301777334973 1021.9770248287198 383.5267783657967Q1019.37296717501 387.91916476964474 1015.1060775255576 390.6487191777503L1015.1060775255576 390.6487191777503Q1010.1175815383301 394.0371315464331 1003.8113696299483 394.0371315464331L1003.8113696299483 394.0371315464331Q999.7327251120894 394.0371315464331 996.3443127434066 392.43704792788844L996.3443127434066 392.43704792788844Q992.9559003747238 399.21387266525403 992.9559003747238 405.77107808242715L992.9559003747238 405.77107808242715Q992.9559003747238 410.50858056086327 995.6540805942304 413.89699292954606Q998.383635002336 417.28540529822885 1004.689846910718 417.28540529822885L1004.689846910718 417.28540529822885Q1012.3765231174518 417.28540529822885 1018.2434963854489 413.55187685495804Q1024.1418438420446 409.8497226002861 1029.2244623950692 403.73175582349774Q1034.3070809480932 397.6451632353083 1039.0445834265292 390.6487191777503L1039.0445834265292 390.6487191777503Q1039.7034413871065 389.9584870285742 1039.954434895898 389.9584870285742L1039.954434895898 389.9584870285742Q1040.6132928564748 389.9584870285742 1040.6132928564748 391.0879578181351L1040.6132928564748 391.0879578181351Q1040.6132928564748 392.21742860769604 1039.954434895898 393.346899397257L1039.954434895898 393.346899397257Q1035.8757903780388 399.6844854942377 1030.7931718250147 405.77107808242715Q1025.7105532719906 411.8576706706166 1019.37296717501 415.9363151884755Q1013.066755266628 420.0149597063344 1004.9408404195092 420.0149597063344ZM1001.5524280508264 390.8683384979427L1001.5524280508264 390.8683384979427Q1007.4194013188235 390.8683384979427 1012.5961424376444 386.7896939800838L1012.5961424376444 386.7896939800838Q1015.1060775255576 385.0013652299457 1016.8944062756957 382.4914301420325Q1018.7141092144327 380.01286924271824 1019.37296717501 377.534308343404L1019.37296717501 377.534308343404Q1020.0631993241861 375.0557474440897 1020.0631993241861 373.2360445053527L1020.0631993241861 373.2360445053527Q1020.0631993241861 368.0593033865318 1016.2355483151184 368.0593033865318L1016.2355483151184 368.0593033865318Q1013.7256132272053 368.0593033865318 1010.5881943673137 370.9771029262308L1010.5881943673137 370.9771029262308Q1007.8586399592082 373.4556638255451 1005.0349629853058 377.3146890232116Q1002.2112860114037 381.14234003227915 1000.1719637524743 384.6562491553576Q998.1640156821436 388.13878408983715 997.4737835329674 389.7388677083818L997.4737835329674 389.7388677083818Q999.0424929629132 390.8683384979427 1001.5524280508264 390.8683384979427ZM1040.17405421609 419.7639661975431L1040.17405421609 419.7639661975431Q1036.0954096982314 419.7639661975431 1034.3070809480932 417.06578597803644Q1032.4873780093562 414.3676057585298 1032.4873780093562 410.28896124067086L1032.4873780093562 410.28896124067086Q1032.4873780093562 407.12016819218053 1033.1776101585324 404.2023686524814L1033.1776101585324 404.2023686524814Q1033.8364681191092 401.03357560399104 1037.4444998079848 393.692015471845Q1041.0839056854588 386.350455339699 1045.3507953349113 378.2245404925801L1045.3507953349113 378.2245404925801Q1043.0918537557895 379.10301777334973 1040.5191702906782 380.1383659971139Q1037.9151126369684 381.14234003227915 1036.7856418474075 382.2718108218401L1036.7856418474075 382.2718108218401Q1035.8757903780388 382.7424236508238 1035.6561710578467 382.7424236508238L1035.6561710578467 382.7424236508238Q1034.9659389086705 382.7424236508238 1034.9659389086705 381.8325721814553L1034.9659389086705 381.8325721814553Q1034.9659389086705 379.79324992252583 1037.4444998079848 377.9735469837888L1037.4444998079848 377.9735469837888Q1039.954434895898 376.1852182336507 1042.3074990408163 375.49498608447453Q1044.691937374334 374.83612812389737 1047.8607304228244 373.9262766545288L1047.8607304228244 373.9262766545288Q1050.3392913221387 369.4083934962851 1053.1629682960406 364.5453942634534Q1055.986645269943 359.6823950306216 1058.2455868490651 356.0743633417464L1058.2455868490651 356.0743633417464Q1059.8142962790107 353.81542176262457 1062.7634700073086 350.3015126395461Q1065.6812695470076 346.8189777050666 1069.320675424482 344.5600361259447L1069.320675424482 344.5600361259447Q1071.3286234948123 343.2109460161914 1074.7170358634953 343.2109460161914L1074.7170358634953 343.2109460161914Q1077.2269709514085 343.2109460161914 1077.4465902716006 344.089423296961L1077.4465902716006 344.089423296961Q1074.058177902918 344.9992747663295 1070.5442687798395 348.6073064552047Q1067.0617338453599 352.2467123326788 1063.8929407968699 356.9842148111149Q1060.7241477483794 361.721717289551 1058.4652061692573 365.8944843732067Q1056.2062645901356 370.0672514568623 1055.0767938005747 372.3261930359842L1055.0767938005747 372.3261930359842Q1059.8142962790107 371.667335075407 1062.9830893275011 371.667335075407L1062.9830893275011 371.667335075407Q1064.8027922662382 371.667335075407 1066.1518823759916 371.7614576412037Q1067.5009724857446 371.8869543955994 1068.4108239551133 372.10657371579174L1068.4108239551133 372.10657371579174Q1070.1991527052514 372.3261930359842 1070.1991527052514 373.2360445053527L1070.1991527052514 373.2360445053527Q1070.1991527052514 374.1458959747212 1067.9402111261297 374.1458959747212L1067.9402111261297 374.1458959747212Q1066.1518823759916 374.1458959747212 1063.767444042474 374.1458959747212Q1061.4143798975551 374.1458959747212 1058.6848254894498 374.585134615106L1058.6848254894498 374.585134615106Q1056.6455032305203 374.83612812389737 1054.512058405794 375.9655989134583Q1052.3786135810678 377.0950697030192 1051.6883814318917 378.4441598127725L1051.6883814318917 378.4441598127725Q1046.7312596332636 387.4799261292599 1042.872234435597 395.82546029657124Q1039.0445834265292 404.2023686524814 1038.5739705975457 408.46925830193385L1038.5739705975457 408.46925830193385Q1037.9151126369684 415.7166958682831 1042.872234435597 415.7166958682831L1042.872234435597 415.7166958682831Q1047.8607304228244 415.7166958682831 1052.9433489758485 411.29293527583616Q1058.0259675288726 406.90054887198806 1062.5438506871164 401.03357560399104Q1067.0617338453599 395.166602335994 1069.7599140648667 391.0879578181351L1069.7599140648667 391.0879578181351Q1070.669765534235 390.17810634876656 1070.8893848544276 390.17810634876656L1070.8893848544276 390.17810634876656Q1071.5796170036037 390.17810634876656 1071.5796170036037 391.30757713832753L1071.5796170036037 391.30757713832753Q1071.5796170036037 392.21742860769604 1070.8893848544276 393.346899397257L1070.8893848544276 393.346899397257Q1067.0617338453599 399.21387266525403 1062.0732378581324 405.3318394420424Q1057.1161160595043 411.4184320302318 1051.5628846774962 415.59119911388746Q1046.0410274840874 419.7639661975431 1040.17405421609 419.7639661975431ZM1094.3886521150148 353.1251896134484L1094.3886521150148 353.1251896134484Q1091.2198590665244 353.1251896134484 1090.5296269173482 349.2975386043808L1090.5296269173482 349.2975386043808Q1090.3100075971556 347.4778356656438 1092.78856849647 345.68950691550566Q1095.298503584383 343.8698039767686 1096.867213014329 343.2109460161914L1096.867213014329 343.2109460161914Q1097.99668380389 342.7403331872077 1098.686915953066 342.5207138670153Q1099.3457739136434 342.30109454682287 1099.816386742627 342.30109454682287L1099.816386742627 342.30109454682287Q1101.3850961725725 342.30109454682287 1101.3850961725725 343.8698039767686L1101.3850961725725 343.8698039767686Q1101.3850961725725 345.68950691550566 1100.1301286286161 348.1680678148199Q1098.9065352732582 350.6466287141341 1098.9065352732582 350.6466287141341L1098.9065352732582 350.6466287141341Q1098.686915953066 351.5564801835027 1097.3064516547138 352.3408348984756Q1095.9573615449603 353.1251896134484 1094.3886521150148 353.1251896134484ZM1071.7992363237963 419.7639661975431L1071.7992363237963 419.7639661975431Q1067.7205918059371 419.7639661975431 1065.932263055799 417.06578597803644Q1064.112560117062 414.3676057585298 1064.112560117062 410.28896124067086L1064.112560117062 410.28896124067086Q1064.112560117062 407.12016819218053 1064.8027922662382 404.2023686524814L1064.8027922662382 404.2023686524814Q1065.2420309066229 402.8219043541292 1067.155856411157 397.4255439151159Q1069.0696819156906 391.9978092875036 1072.3639717185765 385.4406038703305Q1075.6268873328636 378.8833984531573 1079.4859125305302 374.02039922032554Q1083.313563539598 369.18877417609275 1087.3922080574566 369.18877417609275L1087.3922080574566 369.18877417609275Q1089.1805368075948 369.18877417609275 1089.1805368075948 370.0672514568623L1089.1805368075948 370.0672514568623Q1089.1805368075948 370.9771029262308 1088.2706853382265 371.8869543955994L1088.2706853382265 371.8869543955994Q1083.7528021799826 377.3146890232116 1079.7996544165194 384.6562491553576Q1075.8465066530562 391.9978092875036 1073.2738231879453 398.5550147046768Q1070.669765534235 405.08084593325106 1070.1991527052514 408.46925830193385L1070.1991527052514 408.46925830193385Q1069.5402947446742 415.7166958682831 1074.4974165433027 415.7166958682831L1074.4974165433027 415.7166958682831Q1075.187648692479 415.7166958682831 1075.8465066530562 415.59119911388746Q1076.5367388022323 415.4970765480907 1077.4465902716006 415.2460830392994L1077.4465902716006 415.2460830392994Q1082.184092750037 413.67737360935365 1086.7019759082805 409.37910977130235Q1091.2198590665244 405.08084593325106 1095.0475100755916 399.9041048144301Q1098.9065352732582 394.6959895070103 1101.3850961725725 390.8683384979427L1101.3850961725725 390.8683384979427Q1102.2949476419412 389.9584870285742 1102.5145669621334 389.9584870285742L1102.5145669621334 389.9584870285742Q1103.2047991113095 389.9584870285742 1103.2047991113095 391.0879578181351L1103.2047991113095 391.0879578181351Q1103.2047991113095 392.21742860769604 1102.5145669621334 393.346899397257L1102.5145669621334 393.346899397257Q1097.5574451635052 401.03357560399104 1090.8747429919363 408.46925830193385Q1084.2234150089662 415.9363151884755 1077.6662095917932 418.41487608778976L1077.6662095917932 418.41487608778976Q1074.2777972231106 419.7639661975431 1071.7992363237963 419.7639661975431ZM1112.899423388374 421.58366913628015L1112.899423388374 421.58366913628015Q1104.0832763920794 421.58366913628015 1100.6007414575997 417.28540529822885Q1097.0868323345212 412.98714146017755 1097.0868323345212 407.12016819218053L1097.0868323345212 407.12016819218053Q1097.0868323345212 402.8219043541292 1098.5614191986701 398.0844018756931Q1100.036006062819 393.346899397257 1102.0753283217487 389.5192483881894L1102.0753283217487 389.5192483881894Q1105.4637406904317 383.1816622912086 1110.2953657346643 377.3146890232116Q1115.1583649674963 371.4477157552146 1120.5860995951084 367.7141873119437Q1126.0138342227206 363.9806588686729 1130.9709560213491 363.9806588686729L1130.9709560213491 363.9806588686729Q1134.5789877102243 363.9806588686729 1137.5281614385221 366.4592197679871Q1140.4773351668205 368.9377806673014 1140.4773351668205 372.7968058649679L1140.4773351668205 372.7968058649679Q1140.4773351668205 374.3655152949136 1139.7871030176443 376.1852182336507L1139.7871030176443 376.1852182336507Q1139.0968708684682 377.7539276635964 1138.0928968333028 379.2285145277454Q1137.0889227981374 380.7031013918944 1136.1790713287687 382.0521915016477L1136.1790713287687 382.0521915016477Q1135.7084584997851 383.1816622912086 1134.8299812190157 383.1816622912086L1134.8299812190157 383.1816622912086Q1133.920129749647 383.1816622912086 1133.920129749647 381.6129528612629L1133.920129749647 381.6129528612629Q1133.920129749647 380.483482071702 1134.5789877102243 379.5736306023335L1134.5789877102243 379.5736306023335Q1135.2692198594004 378.6637791329649 1135.9594520085766 377.0950697030192Q1136.6183099691539 375.49498608447453 1136.6183099691539 373.9262766545288L1136.6183099691539 373.9262766545288Q1136.6183099691539 370.9771029262308 1135.143723105005 370.0672514568623Q1133.7005104294549 369.18877417609275 1131.8808074907174 369.18877417609275L1131.8808074907174 369.18877417609275Q1127.5825436526661 369.18877417609275 1122.7195444198346 372.89092843076463Q1117.8879193756015 376.6244568740355 1113.8092748577428 382.4914301420325Q1109.7306303398836 388.3897775986284 1107.1579468747727 394.82148626140594Q1104.553889221063 401.25319492418345 1104.553889221063 406.6809295517957L1104.553889221063 406.6809295517957Q1104.553889221063 411.1988127100394 1106.8128308001847 414.46172832432654Q1109.0717723793068 417.7560181272126 1114.719126327111 417.7560181272126L1114.719126327111 417.7560181272126Q1118.5467773361788 417.7560181272126 1122.7195444198346 416.0618119428712Q1126.9236856920893 414.3676057585298 1130.5317173809644 412.1086641794079L1130.5317173809644 412.1086641794079Q1136.3986906489613 408.24963898174144 1140.7910770528092 402.72778178833244Q1145.2148376452565 397.17455040632456 1149.5131014833078 390.8683384979427L1149.5131014833078 390.8683384979427Q1150.171959443885 389.9584870285742 1150.6425722728686 389.9584870285742L1150.6425722728686 389.9584870285742Q1151.0818109132533 389.9584870285742 1151.301430233446 390.8683384979427Q1151.521049553638 391.7781899673112 1150.8621915930612 392.9076607568722L1150.8621915930612 392.9076607568722Q1146.783547075202 399.21387266525403 1141.3558124475899 405.77107808242715Q1135.9594520085766 412.32828349960033 1130.5317173809644 415.7166958682831L1130.5317173809644 415.7166958682831Q1126.4530728631053 418.41487608778976 1121.9351897048618 420.0149597063344Q1117.417306546618 421.58366913628015 1112.899423388374 421.58366913628015ZM1164.6354603879845 421.80328845647256L1164.6354603879845 421.80328845647256Q1159.8979579095485 421.80328845647256 1156.1644294662774 421.14443049589534Q1152.4309010230068 420.45419834671924 1150.6425722728686 419.7639661975431L1150.6425722728686 419.7639661975431Q1148.1326371849555 418.88548891677345 1146.9090438295975 417.4109020526245Q1145.6540762856412 415.9363151884755 1145.6540762856412 414.8068443989146L1145.6540762856412 414.8068443989146Q1145.6540762856412 413.23813496896884 1147.2541599041856 413.23813496896884L1147.2541599041856 413.23813496896884Q1148.383630693747 413.23813496896884 1149.9523401236925 414.58722507872216L1149.9523401236925 414.58722507872216Q1153.121133172183 417.28540529822885 1156.038932711882 417.7560181272126L1156.038932711882 417.7560181272126Q1158.548867799795 417.7560181272126 1162.596138129055 416.9402892236408Q1166.674782646914 416.15593450866794 1168.2434920768596 414.58722507872216L1168.2434920768596 414.58722507872216Q1170.9730464849654 411.8576706706166 1170.9730464849654 409.15949045110995L1170.9730464849654 409.15949045110995Q1170.9730464849654 407.3397875123729 1169.9376982612011 405.6455813280315Q1168.9337242260358 403.9513751436901 1167.1140212872988 402.3826657137444L1167.1140212872988 402.3826657137444Q1164.1962217475998 399.9041048144301 1161.247048019302 397.3000471607202Q1158.2978742910036 394.6959895070103 1156.2899262206734 391.52719645851994L1156.2899262206734 391.52719645851994Q1153.121133172183 386.5700746598914 1153.121133172183 381.8325721814553L1153.121133172183 381.8325721814553Q1153.121133172183 374.585134615106 1157.9841324050144 368.2789227067242Q1162.8157574492475 361.9413366097434 1168.4631113970522 357.89406628048346L1168.4631113970522 357.89406628048346Q1174.5810781738405 353.5958024424321 1180.887290082222 353.5958024424321L1180.887290082222 353.5958024424321Q1184.275702450905 353.5958024424321 1187.224876179203 355.07038930658115Q1190.1740499075008 356.5136019821312 1191.7427593374468 359.6823950306216L1191.7427593374468 359.6823950306216Q1191.962378657639 360.1530078596053 1191.962378657639 360.8118658201825L1191.962378657639 360.8118658201825Q1191.962378657639 362.1609559299358 1191.0525271882707 362.6315687589195Q1190.1740499075008 363.07080739930433 1189.7034370785173 361.721717289551L1189.7034370785173 361.721717289551Q1188.3543469687638 358.11368560067586 1182.2677543805744 358.11368560067586L1182.2677543805744 358.11368560067586Q1178.6283485031004 358.11368560067586 1174.4555814194446 359.4627757104292Q1170.2828143357892 360.8118658201825 1167.804253436475 362.6315687589195L1167.804253436475 362.6315687589195Q1160.1175772297406 368.4985420269166 1160.1175772297406 377.7539276635964L1160.1175772297406 377.7539276635964Q1160.1175772297406 384.3111330807696 1164.415841067792 389.5192483881894L1164.415841067792 389.5192483881894Q1167.3336406074914 393.12728007706454 1170.6279304103773 396.1705763711593Q1173.8908460246644 399.21387266525403 1176.149787603786 402.03754963915634Q1178.4087291829082 404.86122661305865 1177.749871222331 407.5907810211642L1177.749871222331 407.5907810211642Q1176.6204004327697 412.54790281979274 1171.2867883709546 415.59119911388746Q1165.984550497738 418.6344954079822 1161.466667339494 419.1051082369659L1161.466667339494 419.1051082369659Q1162.8157574492475 419.32472755715827 1166.4551633267215 419.32472755715827L1166.4551633267215 419.32472755715827Q1179.3185806522765 419.32472755715827 1188.4798437231598 410.7281998810557Q1197.6097326054437 402.163046393552 1205.296408812178 390.397725668959L1205.296408812178 390.397725668959Q1205.7356474525627 389.7388677083818 1206.2062602815463 389.7388677083818L1206.2062602815463 389.7388677083818Q1206.645498921931 389.7388677083818 1206.645498921931 390.8683384979427L1206.645498921931 390.8683384979427Q1206.645498921931 392.21742860769604 1205.5160281323701 394.0371315464331L1205.5160281323701 394.0371315464331Q1196.9508746448664 407.12016819218053 1187.7896115739836 414.46172832432654Q1178.6283485031004 421.80328845647256 1164.6354603879845 421.80328845647256Z " fill="#ffffff" transform="matrix(0.7251508370393451,0,0,0.7251508370393451,0,38.02707009487975)"/></g></svg>